<?xml version="1.0" ?><!DOCTYPE svg  PUBLIC '-//W3C//DTD SVG 1.1//EN'  'http://www.w3.org/Graphics/SVG/1.1/DTD/svg11.dtd'><svg enable-background="new 0 0 512 512" height="512px" id="Layer_1" version="1.1" viewBox="0 0 512 512" width="512px" xml:space="preserve" xmlns="http://www.w3.org/2000/svg" xmlns:xlink="http://www.w3.org/1999/xlink"><g id="cardio"><path d="M58.746,233.5c-10.388-16.902-18.091-36.476-18.091-57.359C40.654,113.755,91.409,63,153.795,63   c35.641,0,68.481,16.297,90.101,44.712l11.938,15.691l11.938-15.691C289.39,79.297,322.229,63,357.871,63   c62.387,0,113.142,50.755,113.142,113.141c0,20.882-7.703,40.456-18.092,57.359h17.271c9.403-17.343,15.82-36.761,15.82-57.359   C486.012,105.371,428.641,48,357.871,48c-41.639,0-78.632,19.865-102.038,50.63C232.427,67.865,195.434,48,153.795,48   c-70.77,0-128.141,57.371-128.141,128.141c0,20.598,6.417,40.016,15.82,57.359H58.746z" fill="#333333"/><polygon fill="#333333" points="415.12,278.5 255.833,437.787 96.547,278.5 75.333,278.5 255.833,459 436.333,278.5  "/><polygon fill="#BC0000" points="493.5,248.5 328.5,248.5 328.5,249.058 280.577,329.679 210.583,126.167 145.008,248.5 17.5,248.5    17.5,263.5 154.167,263.5 207.912,165.324 276.167,366.5 336.788,263.5 493.5,263.5  "/></g></svg>