<?xml version="1.0" ?><!DOCTYPE svg  PUBLIC '-//W3C//DTD SVG 1.1//EN'  'http://www.w3.org/Graphics/SVG/1.1/DTD/svg11.dtd'><svg enable-background="new 0 0 500 500" height="500px" id="Layer_1" version="1.1" viewBox="0 0 500 500" width="500px" xml:space="preserve" xmlns="http://www.w3.org/2000/svg" xmlns:xlink="http://www.w3.org/1999/xlink"><g id="XMLID_99_"><path d="M247.004,231.899l-6.289-0.464c-3.201-0.54-6.229,1.627-6.764,4.83   c-0.533,3.202,1.628,6.23,4.832,6.763l58.978,10.841c2.586-0.3,4.662-2.27,5.105-4.836c0.444-2.564-0.853-5.115-3.187-6.269   l-46.133-27.002c-1.717-0.848-3.645-0.782-5.233,0.011c-1.108,0.553-2.052,1.458-2.641,2.653c-1.44,2.909-0.247,6.435,2.664,7.872   l2.084,1.306C249.136,228.73,247.538,230.203,247.004,231.899z" fill="#307DC1" id="XMLID_100_"/><path d="M92.252,252.628c-0.77,12.995,4.249,24.83,13.098,30.884   c2.779,1.901,5.796,3.152,8.965,3.749c5.197,0.979,10.798,0.195,16.403-2.374c3.765-1.727,5.418-6.178,3.692-9.943   c-1.727-3.766-6.179-5.417-9.944-3.693c-4.16,1.908-7.743,1.868-10.646-0.119c-4.391-3.004-7.041-10.084-6.595-17.618   c0.557-9.399-0.973-16.892-2.451-24.138c-1.522-7.461-2.962-14.508-2.391-24.141c0.929-15.682,12.984-26.389,28.665-25.46   l2.042,0.121c8.159,0.48,12.959,6.189,15.096,9.547c3.454,5.43,4.617,11.987,2.896,16.316c-0.047,0.119-0.091,0.238-0.132,0.358   c-2.2,6.471-4.942,11.179-7.494,14.845c-1.641-2.715-3.636-5.038-5.996-6.941c-7.912-6.383-12.795-5.364-17.609-5.275   c-7.559,0.591-8.798,14.746,2.027,14.862c0.016,0.003,0.025,0.005,0.041,0.007c0.767-0.029,3.685,0.021,6.285,2.213   c3.127,2.636,5.069,7.752,5.618,14.795c0.269,3.453,2.835,6.177,6.084,6.789c0.637,0.12,1.3,0.159,1.976,0.106   c3.93-0.306,6.911-3.592,6.911-7.47c0.21-0.539,0.367-1.105,0.448-1.699c0.417-0.743,1.599-2.261,2.566-3.504   c3.672-4.72,9.213-11.84,13.287-23.732c3.427-8.833,1.807-20.199-4.251-29.721c-6.25-9.826-16.043-15.835-26.865-16.471   l-2.041-0.121c-23.965-1.419-43.107,15.582-44.526,39.546c-0.688,11.595,1.095,20.325,2.667,28.028   C91.481,239.253,92.693,245.191,92.252,252.628z" fill="#307DC1" id="XMLID_102_"/><path d="M121.919,223.617c-0.105,0.004-0.172,0.009-0.189,0.011   C121.73,223.628,125.437,224.227,121.919,223.617z" fill="#307DC1" id="XMLID_103_"/><path d="M312.148,218.904c0.089,0.004,0.175-0.002,0.262-0.001   c0.569,0.139,1.159,0.219,1.764,0.219c0.323,0,0.649-0.021,0.978-0.063c4.107-0.535,7.004-4.298,6.47-8.405l-2.241-17.222   c-0.535-4.109-4.308-6.999-8.405-6.47c-4.107,0.535-7.004,4.298-6.47,8.405l1.003,7.707c-13.679-2.143-43.676-9.529-64.531-34.32   c-2.667-3.169-7.397-3.578-10.567-0.911c-3.17,2.666-3.578,7.397-0.911,10.567C261.345,216.271,310.089,218.814,312.148,218.904z" fill="#307DC1" id="XMLID_104_"/><path d="M308.76,81.142c18.067,12.832,18.282,17.988,26.189,28.721   c6.864-0.973,13.564-2.006,20.07-3.097c-10.75-21.957-16.963-25.428-34.679-41.929c-4.041-3.764-10.747-2.14-13.944,2.363   C303.199,71.702,304.257,77.944,308.76,81.142z" fill="#307DC1" id="XMLID_105_"/><path d="M370.927,329.455c-0.713-9.123-5.6-19.759-11.258-32.075   c-7.833-17.049-16.711-36.373-14.326-51.826c1.729-11.203,6.126-21.018,10.005-29.678c1.92-4.285,3.732-8.332,4.991-12.093   c3.352-10.023,6.385-26.092,6.306-43.995c-6.415-0.165-13.113-0.454-20.041-0.852c0.177,21.738-5.111,38.136-5.233,38.502   c-0.945,2.828-2.489,6.272-4.275,10.26c-4.179,9.328-9.379,20.937-11.52,34.805c-3.301,21.391,7.356,44.587,15.918,63.225   c4.454,9.691,9.057,19.714,9.492,25.283c0.111,1.423,0.041,3.329-0.93,4.326c-1.263,1.299-4.322,1.959-8.185,1.766   c-2.922-0.146-5.805-0.673-8.593-1.183c-8.301-1.517-20.845-3.809-30.012,9.601c-9.878,14.448-4.702,25.518-1.61,32.132   c0.279,0.597,0.618,1.321,0.919,2.015c-2.674,0.058-9.624-1.182-17.599-1.353c-15.704-0.586-32.492,1.702-34.676,2   c-0.56,0.076-1.106,0.184-1.64,0.32c-5.71,1.463-9.793,6.248-9.361,11.301c0.474,5.526,6.166,9.282,12.715,8.389   c5.256-0.716,18.96-2.018,29.932-1.2c1.458,1.772,2.74,3.548,3.594,5.001c-1.291,0.317-2.798,0.611-3.981,0.842   c-6.96,1.358-16.492,3.219-20.619,12.313c-3.92,8.641-8.095,16.811-14.41,28.199c-4.245,7.653-17.237,16.812-34.029,8.814   c-4.957-2.361-9.465-5.231-14.236-8.271c-14.812-9.434-31.601-20.125-61.052-12.318c-37.21,9.864-58.884,44.758-59.788,46.238   c-2.879,4.713-1.392,10.868,3.321,13.747c1.002,0.611,2.068,1.026,3.154,1.255c4.026,0.847,8.325-0.865,10.593-4.576   c0.18-0.294,18.307-29.501,47.845-37.332c20.977-5.562,31.659,1.242,45.182,9.854c5.071,3.23,10.314,6.569,16.38,9.458   c4.02,1.915,7.998,3.247,11.894,4.065c21.289,4.475,39.989-6.386,48.226-21.235c6.338-11.427,10.796-20.132,14.813-28.931   c1.328-0.632,4.554-1.262,6.558-1.653c6.391-1.247,14.344-2.799,18.804-9.748c3.146-4.902,2.969-10.252,1.198-15.321   c6.337-0.51,12.652-2.582,15.775-8.674c4.57-8.917,0.982-16.593-1.393-21.672c-2.499-5.347-3.435-7.347,0.002-12.375   c1.664-2.434,1.838-2.688,9.907-1.214c3.262,0.596,6.958,1.271,11.188,1.483c12.563,0.629,19.727-3.893,23.523-7.797   C367.807,345.773,371.71,339.485,370.927,329.455z" fill="#307DC1" id="XMLID_106_"/></g><g id="XMLID_31_"><path d="M112.262,98.555c0.482,0.166,0.974,0.244,1.457,0.244c1.866,0,3.609-1.172,4.248-3.036   c0.805-2.346-0.445-4.9-2.792-5.704c-2.438-0.836-4.789-1.663-7.056-2.479c13.596-4.241,29.103-8.348,46.024-12.167   c4.839-1.092,7.876-5.9,6.784-10.739c-1.091-4.839-5.898-7.877-10.739-6.784c-26.381,5.955-49.393,12.586-67.551,19.425   C57.19,65.669,50.478,57.1,51.12,53.559c1.338-7.384,32.921-16.436,111.972-9.293c2.478,0.232,4.654-1.598,4.876-4.068   c0.224-2.471-1.598-4.654-4.067-4.877c-33.479-3.026-62.262-3.455-83.242-1.24C56.554,36.625,44,42.473,42.282,51.957   C39.721,66.078,63.266,81.756,112.262,98.555z" fill="#5DBFCC" id="XMLID_109_"/><path d="M135.824,96.692c-2.373-0.716-4.881,0.627-5.597,3.002   c-0.716,2.375,0.627,4.88,3.002,5.597c5.729,1.729,11.724,3.452,17.816,5.121c0.397,0.109,0.796,0.161,1.189,0.161   c1.974,0,3.782-1.311,4.329-3.305c0.656-2.392-0.752-4.863-3.144-5.519C147.4,100.1,141.48,98.399,135.824,96.692z" fill="#5DBFCC" id="XMLID_110_"/><path d="M461.784,48.04c0.671-0.287,1.278-0.734,1.757-1.322l3.954-7.759l8.335,2.521   c0.756,0.061,1.499-0.066,2.17-0.352c0.875-0.373,1.63-1.016,2.138-1.863c0.897-1.499,0.866-3.376-0.08-4.844l-6.29-5.937   l5.106-7.37c0.672-1.611,0.371-3.465-0.776-4.781c-1.147-1.316-2.943-1.867-4.631-1.42l-7.722,4.368l-5.299-7.354   c-1.324-1.138-3.18-1.425-4.787-0.74s-2.685,2.222-2.783,3.966l1.635,8.915l-8.499,2.545c-1.491,0.909-2.338,2.585-2.183,4.325   c0.154,1.739,1.283,3.24,2.912,3.871l8.852,1.421l-0.073,8.648c0.404,1.699,1.736,3.022,3.438,3.413   C459.922,48.512,460.909,48.413,461.784,48.04z" fill="#5DBFCC" id="XMLID_111_"/><path d="M14.068,166.377c0.087,0.83,0.373,1.643,0.853,2.363l7.145,6.927l-5.557,8.256   c-0.32,0.806-0.432,1.659-0.345,2.489c0.113,1.082,0.562,2.122,1.316,2.961c1.334,1.484,3.396,2.082,5.316,1.541l8.6-4.873   l6.333,8.055c1.533,1.276,3.659,1.57,5.483,0.76c1.824-0.811,3.029-2.586,3.108-4.58l-2.173-9.903l9.813-3.314   c1.687-1.064,2.625-2.995,2.417-4.98s-1.524-3.68-3.396-4.372l-10.287-1.212l0.077-10.137c-0.491-1.935-2.037-3.423-3.99-3.838   c-1.951-0.417-3.97,0.312-5.206,1.877l-4.529,9.191l-9.421-2.988c-1.992-0.131-3.885,0.88-4.884,2.608   C14.178,164.185,13.955,165.295,14.068,166.377z" fill="#5DBFCC" id="XMLID_121_"/><path d="M423.804,103.381c-2.043-1.407-4.839-0.893-6.246,1.151   c-1.406,2.042-0.892,4.838,1.151,6.246c10.499,7.231,10.69,11.245,10.498,12.302c-0.621,3.425-8.903,8.235-30.201,10.516   c-20.228,2.167-48.182,1.772-80.846-1.141c-2.468-0.218-4.652,1.604-4.873,4.075c-0.22,2.471,1.604,4.651,4.075,4.872   c19.041,1.698,36.548,2.55,51.939,2.55c11.476,0,21.776-0.474,30.66-1.425c23.913-2.561,36.371-8.398,38.083-17.846   C439.291,117.806,434.633,110.839,423.804,103.381z" fill="#5DBFCC" id="XMLID_112_"/><path d="M395.064,37.108c-25.649-3.048-60.122-3.172-99.688-0.36   c-4.947,0.352-8.673,4.647-8.322,9.596c0.352,4.947,4.645,8.687,9.596,8.322c35.958-2.555,67.699-2.629,91.791-0.212   c25.603,2.568,35.092,7.39,37.199,9.542c-1.874,3.483-13.831,13.356-52.404,25.55c-34.799,11.001-80.836,20.651-129.629,27.171   s-95.748,9.298-132.215,7.82c-40.325-1.633-54.484-7.995-57.255-10.874c1.007-1.703,5.79-7.591,26.727-16.341   c0.549-0.229,1.125-0.458,1.687-0.688c-8.255-3.362-15.453-6.675-21.555-9.933c-13.349,6.838-26.62,16.487-24.902,29.343   c2.062,15.435,23.981,23.753,68.977,26.177c8.325,0.449,17.201,0.67,26.543,0.67c33.618,0,73.217-2.871,114.373-8.371   c52.592-7.028,101.599-17.53,137.993-29.571c42.781-14.154,61.746-27.936,59.683-43.372   C441.929,48.619,426.487,40.843,395.064,37.108z" fill="#5DBFCC" id="XMLID_113_"/><circle cx="471.171" cy="102.588" fill="#5DBFCC" id="XMLID_114_" r="11.615"/><circle cx="19.765" cy="79.358" fill="#5DBFCC" id="XMLID_115_" r="9.731"/><circle cx="27.683" cy="28.19" fill="#5DBFCC" id="XMLID_116_" r="16.314"/><circle cx="259.731" cy="18.459" fill="#5DBFCC" id="XMLID_117_" r="9.731"/></g></svg>